<svg xmlns="http://www.w3.org/2000/svg" width="714.372" height="787.073"><g fill="none" stroke="#0019ff" stroke-width=".25"><path d="M427.072 699.291l-69.886-305.75-69.89 305.75a71.687 71.687 0 0069.886 87.661h0a71.688 71.688 0 0069.89-87.661zM287.296 87.787l69.886 305.749 69.886-305.749A71.689 71.689 0 00357.182.124h0a71.688 71.688 0 00-69.886 87.663z"/><path d="M118.308 190.303l238.879 203.234-303.449-79.273A71.687 71.687 0 018.279 211.785h0a71.687 71.687 0 01110.029-21.482zM596.066 596.771L357.187 393.537l303.452 79.273a71.689 71.689 0 0145.459 102.48h0a71.687 71.687 0 01-110.032 21.481zM596.066 190.303L357.187 393.537l303.452-79.272a71.688 71.688 0 0045.459-102.479h0a71.686 71.686 0 00-110.032-21.483z"/><path d="M118.308 596.771l238.879-203.234L53.738 472.81A71.688 71.688 0 008.279 575.29h0a71.688 71.688 0 00110.029 21.481z"/></g></svg>