<svg xmlns="http://www.w3.org/2000/svg" width="60.01" height="42.235"><path d="M20.813 15.701V5.485a5.3 5.3 0 015.3-5.3 5.3 5.3 0 015.3 5.3v10.332a5.3 5.3 0 01-5.456 5.293 5.369 5.369 0 01-5.144-5.409z" fill="#00ff8b"/><path d="M0 15.874V5.468A5.282 5.282 0 015.282.186a5.282 5.282 0 015.282 5.282v10.658A15.545 15.545 0 0026.292 31.67a15.673 15.673 0 0015.362-15.743V5.467A5.282 5.282 0 0146.936.185a5.282 5.282 0 015.282 5.282v10.658a26.109 26.109 0 11-52.217-.253z" fill="#0019ff"/><g fill="#0019ff"><path d="M58.863 1.493a.681.681 0 00-.674-.528h-1v1.983a.146.146 0 00.146.146.146.146 0 00.146-.146v-.645h.309l.739.784a.146.146 0 00.206.006.146.146 0 00.006-.206l-.551-.585h.021a.67.67 0 00.652-.809zm-1.386-.237h.731a.378.378 0 110 .755h-.731z"/><path d="M57.983-.003a2.027 2.027 0 102.027 2.028 2.03 2.03 0 00-2.027-2.028zm0 3.764a1.736 1.736 0 111.736-1.736 1.738 1.738 0 01-1.736 1.739z"/></g></svg>